# ProBuilder 5.0.7
# https://unity3d.com/unity/features/worldbuilding/probuilder
# 9/26/2023 3:38:55 PM

mtllib ./Base.mtl
o Base

g Atras
v 32.15762 53.10513 92.75568
v -12.82476 53.10513 92.75568
v 32.15762 90.07615 92.75568
v -12.82476 90.07615 92.75568
v -16.47185 50.09182 85.61923
v -13.59737 52.45609 49.81676
v -16.47186 93.08945 85.83477
v -13.59737 90.72519 49.81676
v 33.26861 52.45609 49.81677
v 36.14309 50.09183 85.70628
v 33.26861 90.7252 49.81677
v 36.14309 93.08945 85.92181
v -16.13349 93.08945 85.83479
v -13.25901 90.7252 49.81677
v -13.25901 52.45609 49.81677
v -16.13349 50.09183 85.61925
v -12.48639 90.07615 92.75568
v 32.49599 90.07615 92.75568
v 32.49599 53.10513 92.75568
v -12.48639 53.10513 92.75568
v 32.93024 52.45609 49.81676
v 32.93024 90.72519 49.81676

vt 0.8669661 0.544172
vt 0.4695575 0.544172
vt 0.8669661 0.9395703
vt 0.4695575 0.9395703
vt 0.996298 0.4144965
vt 0.9787108 0.03705753
vt 0.6963144 0.4176401
vt 0.7117115 0.03782257
vt 0.02688107 0.02078354
vt 0.01046696 0.4318587
vt 0.3295912 0.01909882
vt 0.3505933 0.4323928
vt 0.04999495 0.8955366
vt 0.3377054 0.8946569
vt 0.06581467 0.532246
vt 0.321885 0.5322465
vt 0.6645417 0.02834281
vt 0.3808198 0.02834281
vt 0.6820701 0.4286613
vt 0.3632914 0.4276855
vt 0.9754955 0.4925449
vt 0.717553 0.493284
vt 0.3176328 0.9669986
vt 0.07006687 0.966998
vt 0.3271379 0.5008022
vt 0.03469588 0.5024298
vt 0.6598306 0.5102117
vt 0.3855315 0.5102117
vt 41.03778 -11.17764
vt 28.77036 -11.17764
vt 41.12699 -11.17764
vt 28.85958 -11.17764
vt 0.3295866 0.01829371
vt 0.0268766 0.01997843
vt 0.3787568 0.02834281
vt 0.3612284 0.4276855
vt 0.3834682 0.5102117
vt 40.83407 8.187613
vt 28.97407 8.187614
vt 40.74486 8.187614
vt 28.88486 8.187616
vt 40.83407 11.9191
vt 28.97407 11.9191
vt 40.92329 11.9191
vt 29.06328 11.9191
vt 0.8699555 0.5441723
vt 0.8699555 0.9395703
vt 0.3395677 0.8946569
vt 0.3237472 0.5322465
vt 0.319495 0.9669986
vt 41.03681 -3.987271
vt 28.76951 -4.025156
vt 40.9476 -3.98754
vt 28.6803 -4.025425

vn 0 0 2.049867
vn -3.789217 0.00104022 -0.08883578
vn -3.789237 0.0005201101 -0.08858509
vn -3.789258 0 -0.08833439
vn 3.789232 0 -0.08864988
vn 3.789253 0.000516152 -0.08840019
vn 3.789272 0.001032304 -0.08815051
vn 0.0005001289 3.130264 -0.08775233
vn 0.0002500644 3.130258 -0.08785233
vn 0 -3.13023 -0.08826684
vn 0.0005042088 -3.130217 -0.0884692
vn -3.65589 0 0.5457511
vn -3.6521 -0.003281142 0.5530543
vn -3.648309 -0.006562283 0.5603575
vn 0 3.013267 0.5615795
vn -0.001617807 3.011922 0.5646493
vn -0.003235614 3.010577 0.567719
vn 3.644219 0 0.5680944
vn 3.648159 -0.003238598 0.5605976
vn 3.652098 -0.006477195 0.5531007
vn 0 -3.01736 0.5520909
vn -0.001556667 -3.018597 0.5491803
vn -0.003113333 -3.019834 0.5462698
vn 0 -3.108942 0.2542548
vn 0.0001621773 0 -2.049867
vn -1.155438E-05 -3.020016 0.5458397
vn 0 2.972354 -0.6482251
vn 0 -2.972354 0.6482251
vn 0 2.506509 -1.22992

usemtl check
f 3/3/1 4/4/1 2/2/1 1/1/1
f 7/7/3 8/8/4 6/6/3 5/5/2
f 11/11/6 12/12/7 10/10/6 9/9/5
f 11/15/9 14/16/9 13/14/9 12/13/8
f 10/19/10 16/20/11 15/18/10 9/17/10
f 7/7/14 5/5/13 2/21/12 4/22/13
f 12/13/17 13/14/16 17/23/15 18/24/16
f 10/10/20 12/12/19 18/25/18 19/26/19
f 16/20/23 10/19/22 19/27/21 20/28/22
f 9/31/24 15/32/24 6/30/24 21/29/24
f 11/11/25 9/9/25 21/34/25 22/33/25
f 15/18/10 16/20/10 5/36/10 6/35/10
f 16/20/26 20/28/26 2/37/26 5/36/26
f 20/40/27 19/41/27 1/39/27 2/38/27
f 18/44/28 17/45/28 4/43/28 3/42/28
f 19/46/1 18/47/1 3/3/1 1/1/1
f 13/14/9 14/16/9 8/49/9 7/48/9
f 17/23/15 13/14/15 7/48/15 4/50/15
f 14/53/29 11/54/29 22/52/29 8/51/29

g Base
v -0.3399975 2.111099 -36.49553
v 19.3813 2.111099 -36.49553
v -20.55189 107.8497 -35.70206
v 37.84742 107.8497 -35.70206
v 37.95067 108.7496 26.97454
v -20.44863 108.7496 26.97454
v 37.84611 38.91943 26.15677
v -20.55319 38.91943 26.15677
v 37.84611 32.66861 29.29963
v -20.55319 32.66861 29.29963
v -20.55319 32.64858 46.35732
v 8.64646 32.64858 46.35732
v 37.84611 32.64858 46.35732
v -18.5443 113.4528 30.11741
v 36.04635 113.4528 30.11741
v 36.04635 113.1594 47.17509
v 8.751024 113.1594 47.17509
v -18.5443 113.1594 47.17509
v 37.8984 91.62645 57.93966
v 37.87225 57.6609 57.73522
v 8.672601 57.6609 58.31474
v 8.698742 91.62645 58.51918
v -20.52705 57.6609 57.73522
v -20.50091 91.62645 57.93966
v 37.94788 111.2932 30.09555
v 37.94611 111.2806 48.1143
v -20.45319 111.2806 48.1143
v -20.45142 111.2932 30.09555
v -20.44863 111.7315 28.96721
v 37.95067 111.7315 28.96721

vt 0.5036943 0.1183438
vt 0.4278443 0.1183438
vt 0.5814312 0.4769504
vt 0.3568218 0.4769504
vt 0.3944598 0.6817
vt 0.5865009 0.6817
vt 0.3947994 0.4838043
vt 0.5868404 0.4838043
vt 0.7858571 0.4674237
vt 0.7131121 0.4674237
vt 0.8539672 0.6748987
vt 0.6385527 0.6748987
vt 0.8539672 0.6897689
vt 0.6385527 0.6897689
vt 0.6385527 0.7517899
vt 0.7462599 0.7517899
vt 0.8539672 0.7517899
vt 0.5802386 0.695565
vt 0.4007221 0.695565
vt 0.4007221 0.7489676
vt 0.4904804 0.7489676
vt 0.5802386 0.7489676
vt 0.239511 0.9277827
vt 0.2394165 0.819348
vt 0.1336833 0.8193267
vt 0.1337779 0.9277613
vt 0.2393232 0.7399105
vt 0.1335901 0.7399106
vt 0.02795026 0.819348
vt 0.02804488 0.9277828
vt 0.02785705 0.7399106
vt 0.1467544 0.7056081
vt 0.1505983 0.3921366
vt 0.06744573 0.3897713
vt 0.01199015 0.4880149
vt 0.01100285 0.6234848
vt 0.05891629 0.7031469
vt 0.302918 0.7168722
vt 0.3547206 0.6311379
vt 0.3536322 0.4857296
vt 0.2936124 0.3803588
vt 0.2036464 0.3830615
vt 0.2078836 0.7196942
vt 0.03954812 0.1369325
vt 0.036466 0.3633752
vt 0.2670729 0.3688088
vt 0.2830981 0.01311192
vt 0.6525121 0.03729251
vt 0.6551707 0.3630596
vt 0.874244 0.365833
vt 0.871385 0.1506165
vt 0.2987025 0.7290524
vt 0.2087364 0.7329251
vt 0.1459732 0.7177235
vt 0.06282064 0.7142672
vt 0.02821885 0.9908951
vt 0.03513119 0.9969281
vt 0.1339687 0.996928
vt 0.1914238 0.709291
vt 0.2019336 0.7217492
vt 0.1870703 0.4102994
vt 0.3944598 0.6904908
vt 0.5865009 0.6904908
vt 0.165919 0.4175026
vt 0.1522559 0.7075033
vt 0.1619697 0.69587
vt 0.232806 0.996928
vt 0.239685 0.9908951

vn 0 0.03063172 -3.17376
vn 0 3.599203 -0.04017717
vn 0 -3.196098 1.459912
vn 0 -1.782991 -2.757133
vn 0 -3.59949 -0.003286811
vn 0 3.599077 0.04813647
vn 0.06297736 -0.02462838 3.173176
vn 0.05597147 -1.650087 2.820177
vn 0.02798573 -1.682847 2.805176
vn 0 -1.715607 2.790175
vn -0.06297739 -0.02450369 3.173177
vn -0.05536814 -1.715288 2.789778
vn -0.02768407 -1.682786 2.805211
vn 0 -1.650285 2.820642
vn 3.173867 -0.007516817 0.001512822
vn 3.173872 -0.004239886 0.0006470938
vn 3.173873 -0.004263917 -3.893521E-06
vn 3.173873 -0.003700144 -0.0003891464
vn 3.173869 -0.006056669 0.0007504151
vn 3.173864 -0.009714264 0.0003060704
vn -3.173864 0.009714264 -0.0003060704
vn -3.173869 0.006056669 -0.0007504156
vn -3.173873 0.003700144 0.0003891463
vn -3.173873 0.004263917 3.893521E-06
vn -3.173872 0.004239886 -0.0006470943
vn -3.173867 0.007516817 -0.001512823
vn 3.116931 -0.3438331 -0.2978223
vn 3.173867 -0.006034999 -0.005161477
vn 3.059995 -0.6816312 -0.5904831
vn -3.03884 -0.7409127 -0.6419719
vn -3.106353 -0.3674389 -0.3184052
vn -3.173867 0.006034999 0.005161477
vn -2.069867 2.728401 0.03649146
vn -2.156211 2.637784 0.01882956
vn -2.242555 2.547167 0.001167661
vn 2.245907 2.543073 0.03401276
vn 2.16569 2.628231 0.01784778
vn 2.085473 2.713388 0.001682804
vn -0.02737043 1.81301 2.74139
vn -0.02737313 1.777555 2.759588
vn -5.396768E-06 1.775268 2.761005
vn -0.01824875 1.800429 2.747928
vn 0 1.846178 2.724609
vn -3.173864 0.00578856 -0.006509146
vn -3.173866 0.005362272 -0.00623902
vn -3.173864 0.005585594 -0.001669569
vn -3.173862 0.00517966 0.008009585
vn -3.173862 0.005697254 0.000615156
vn 1.092452E-06 2.174073 -2.529542
vn 3.173862 -0.005697254 -0.0006151578
vn 3.173862 -0.00517966 -0.008009588
vn 3.173864 -0.005585594 0.001669568
vn 3.173866 -0.005362272 0.00623902
vn 3.173864 -0.00578856 0.006509146
vn 0.02737441 1.777426 2.759653
vn 0.02737171 1.812881 2.741455
vn 0.01824961 1.800343 2.747972
vn -2.184798 2.471931 0.74115
vn 2.186484 2.46645 0.7503181

usemtl check
f 31/67/34 35/71/34 34/70/34
f 31/67/34 34/70/34 32/68/34
f 33/69/34 32/68/34 34/70/34
f 39/75/35 36/72/35 40/76/35
f 36/72/35 39/75/35 37/73/35
f 39/75/35 38/74/35 37/73/35
f 47/86/44 41/90/48 31/87/45
f 48/91/49 41/90/48 47/86/44
f 42/89/47 31/87/45 41/90/48
f 35/88/46 31/87/45 42/89/47
f 45/94/52 32/96/54 33/95/53
f 46/93/51 32/96/54 45/94/52
f 50/97/55 46/93/51 49/92/50
f 32/96/54 46/93/51 50/97/55
f 39/112/72 40/111/71 44/80/68
f 40/111/71 46/84/69 44/80/68
f 49/110/70 46/84/69 40/111/71
f 51/114/74 28/113/73 50/97/75
f 50/97/75 30/115/77 32/96/76
f 50/97/75 28/113/73 30/115/77
f 28/60/78 51/117/78 36/72/78
f 28/60/78 36/72/78 27/59/78
f 36/72/78 37/73/78 27/59/78
f 27/59/78 37/73/78 52/116/78
f 29/118/79 27/120/83 47/86/81
f 31/87/80 29/118/79 47/86/81
f 47/86/81 27/120/83 52/119/82
f 38/121/86 41/77/84 48/122/70
f 38/121/86 44/80/85 41/77/84
f 39/112/72 44/80/85 38/121/86
f 51/114/87 50/97/87 36/107/87
f 37/108/88 47/86/88 52/119/88
f 26/58/30 24/56/30 23/55/30
f 23/55/30 25/57/30 26/58/30
f 25/62/31 28/60/31 27/59/31
f 27/59/31 26/61/31 25/62/31
f 30/66/32 23/64/32 24/63/32
f 24/63/32 29/65/32 30/66/32
f 32/68/33 30/66/33 29/65/33
f 29/65/33 31/67/33 32/68/33
f 43/79/36 42/78/36 41/77/36
f 41/77/36 44/80/36 43/79/36
f 34/82/39 35/81/38 42/78/37
f 42/78/37 43/79/38 34/82/39
f 45/83/40 43/79/40 44/80/40
f 44/80/40 46/84/40 45/83/40
f 33/85/43 34/82/42 43/79/41
f 43/79/41 45/83/42 33/85/43
f 29/98/56 24/101/58 26/100/56
f 26/100/56 27/99/57 29/98/56
f 23/102/59 30/105/60 28/104/61
f 28/104/61 25/103/60 23/102/59
f 49/92/63 40/106/62 36/107/63
f 36/107/63 50/97/64 49/92/63
f 47/86/66 37/108/65 38/109/66
f 38/109/66 48/91/67 47/86/66

